<mxfile host="app.diagrams.net" agent="Mozilla/5.0 (Windows NT 10.0; Win64; x64) AppleWebKit/537.36 (KHTML, like Gecko) Chrome/136.0.0.0 Safari/537.36 Edg/136.0.0.0" version="26.3.0">
  <diagram name="PÃ¡gina-1" id="JQuOVxYdUr5YD73U9cjd">
    <mxGraphModel dx="5917" dy="2895" grid="1" gridSize="10" guides="1" tooltips="1" connect="1" arrows="1" fold="1" page="1" pageScale="1" pageWidth="827" pageHeight="1169" math="0" shadow="0">
      <root>
        <mxCell id="0" />
        <mxCell id="1" parent="0" />
        <mxCell id="xvhHyQVjLZGwruTfH_Rg-59" style="edgeStyle=orthogonalEdgeStyle;rounded=0;orthogonalLoop=1;jettySize=auto;html=1;" edge="1" parent="1" source="xvhHyQVjLZGwruTfH_Rg-1" target="xvhHyQVjLZGwruTfH_Rg-58">
          <mxGeometry relative="1" as="geometry" />
        </mxCell>
        <mxCell id="xvhHyQVjLZGwruTfH_Rg-1" value="Inicio" style="ellipse;whiteSpace=wrap;html=1;" vertex="1" parent="1">
          <mxGeometry x="368" y="-190" width="96" height="50" as="geometry" />
        </mxCell>
        <mxCell id="xvhHyQVjLZGwruTfH_Rg-9" style="edgeStyle=orthogonalEdgeStyle;rounded=0;orthogonalLoop=1;jettySize=auto;html=1;entryX=0.5;entryY=0;entryDx=0;entryDy=0;" edge="1" parent="1" source="xvhHyQVjLZGwruTfH_Rg-3" target="xvhHyQVjLZGwruTfH_Rg-4">
          <mxGeometry relative="1" as="geometry" />
        </mxCell>
        <mxCell id="xvhHyQVjLZGwruTfH_Rg-3" value="Calificacion" style="shape=parallelogram;perimeter=parallelogramPerimeter;whiteSpace=wrap;html=1;fixedSize=1;" vertex="1" parent="1">
          <mxGeometry x="344.5" y="110" width="143" height="50" as="geometry" />
        </mxCell>
        <mxCell id="xvhHyQVjLZGwruTfH_Rg-8" style="edgeStyle=orthogonalEdgeStyle;rounded=0;orthogonalLoop=1;jettySize=auto;html=1;exitX=0;exitY=0.5;exitDx=0;exitDy=0;entryX=0.5;entryY=0;entryDx=0;entryDy=0;" edge="1" parent="1" source="xvhHyQVjLZGwruTfH_Rg-4">
          <mxGeometry relative="1" as="geometry">
            <mxPoint x="260" y="270" as="targetPoint" />
            <Array as="points">
              <mxPoint x="300" y="250" />
              <mxPoint x="300" y="251" />
              <mxPoint x="260" y="251" />
            </Array>
          </mxGeometry>
        </mxCell>
        <mxCell id="xvhHyQVjLZGwruTfH_Rg-15" style="edgeStyle=orthogonalEdgeStyle;rounded=0;orthogonalLoop=1;jettySize=auto;html=1;exitX=1;exitY=0.5;exitDx=0;exitDy=0;entryX=0.5;entryY=0;entryDx=0;entryDy=0;" edge="1" parent="1" source="xvhHyQVjLZGwruTfH_Rg-4" target="xvhHyQVjLZGwruTfH_Rg-11">
          <mxGeometry relative="1" as="geometry">
            <mxPoint x="580" y="250" as="targetPoint" />
            <Array as="points">
              <mxPoint x="536" y="250" />
              <mxPoint x="536" y="251" />
              <mxPoint x="570" y="251" />
            </Array>
          </mxGeometry>
        </mxCell>
        <mxCell id="xvhHyQVjLZGwruTfH_Rg-4" value="Calificacion &amp;lt; 69" style="rhombus;whiteSpace=wrap;html=1;" vertex="1" parent="1">
          <mxGeometry x="340" y="210" width="152" height="80" as="geometry" />
        </mxCell>
        <mxCell id="xvhHyQVjLZGwruTfH_Rg-16" style="edgeStyle=orthogonalEdgeStyle;rounded=0;orthogonalLoop=1;jettySize=auto;html=1;" edge="1" parent="1" source="xvhHyQVjLZGwruTfH_Rg-5" target="xvhHyQVjLZGwruTfH_Rg-3">
          <mxGeometry relative="1" as="geometry" />
        </mxCell>
        <mxCell id="xvhHyQVjLZGwruTfH_Rg-5" value="Ingrese su calificacion actual" style="shape=document;whiteSpace=wrap;html=1;boundedLbl=1;" vertex="1" parent="1">
          <mxGeometry x="358" width="116" height="70" as="geometry" />
        </mxCell>
        <mxCell id="xvhHyQVjLZGwruTfH_Rg-10" style="edgeStyle=orthogonalEdgeStyle;rounded=0;orthogonalLoop=1;jettySize=auto;html=1;exitX=0;exitY=0.5;exitDx=0;exitDy=0;entryX=0.5;entryY=0;entryDx=0;entryDy=0;" edge="1" parent="1" source="xvhHyQVjLZGwruTfH_Rg-11">
          <mxGeometry relative="1" as="geometry">
            <mxPoint x="414" y="400" as="targetPoint" />
            <Array as="points">
              <mxPoint x="454" y="360" />
              <mxPoint x="454" y="361" />
              <mxPoint x="414" y="361" />
            </Array>
          </mxGeometry>
        </mxCell>
        <mxCell id="xvhHyQVjLZGwruTfH_Rg-41" style="edgeStyle=orthogonalEdgeStyle;rounded=0;orthogonalLoop=1;jettySize=auto;html=1;exitX=1;exitY=0.5;exitDx=0;exitDy=0;entryX=0.5;entryY=0;entryDx=0;entryDy=0;" edge="1" parent="1" source="xvhHyQVjLZGwruTfH_Rg-11" target="xvhHyQVjLZGwruTfH_Rg-22">
          <mxGeometry relative="1" as="geometry">
            <mxPoint x="810" y="356" as="targetPoint" />
            <Array as="points">
              <mxPoint x="788" y="356" />
            </Array>
          </mxGeometry>
        </mxCell>
        <mxCell id="xvhHyQVjLZGwruTfH_Rg-11" value="Calificacion &amp;lt; 70 || Calificacion &amp;gt;= 69" style="rhombus;whiteSpace=wrap;html=1;" vertex="1" parent="1">
          <mxGeometry x="492" y="300" width="156" height="110" as="geometry" />
        </mxCell>
        <mxCell id="xvhHyQVjLZGwruTfH_Rg-55" style="edgeStyle=orthogonalEdgeStyle;rounded=0;orthogonalLoop=1;jettySize=auto;html=1;entryX=1;entryY=0;entryDx=0;entryDy=0;" edge="1" parent="1" source="xvhHyQVjLZGwruTfH_Rg-13" target="xvhHyQVjLZGwruTfH_Rg-49">
          <mxGeometry relative="1" as="geometry" />
        </mxCell>
        <mxCell id="xvhHyQVjLZGwruTfH_Rg-13" value="Letra = F" style="shape=document;whiteSpace=wrap;html=1;boundedLbl=1;" vertex="1" parent="1">
          <mxGeometry x="210" y="270" width="100" height="50" as="geometry" />
        </mxCell>
        <mxCell id="xvhHyQVjLZGwruTfH_Rg-56" style="edgeStyle=orthogonalEdgeStyle;rounded=0;orthogonalLoop=1;jettySize=auto;html=1;exitX=0;exitY=0.5;exitDx=0;exitDy=0;entryX=1;entryY=0.5;entryDx=0;entryDy=0;" edge="1" parent="1" source="xvhHyQVjLZGwruTfH_Rg-14" target="xvhHyQVjLZGwruTfH_Rg-49">
          <mxGeometry relative="1" as="geometry" />
        </mxCell>
        <mxCell id="xvhHyQVjLZGwruTfH_Rg-14" value="Letra =&amp;nbsp;E" style="shape=document;whiteSpace=wrap;html=1;boundedLbl=1;" vertex="1" parent="1">
          <mxGeometry x="362" y="400" width="100" height="50" as="geometry" />
        </mxCell>
        <mxCell id="xvhHyQVjLZGwruTfH_Rg-18" value="Verdadero" style="text;html=1;align=center;verticalAlign=middle;whiteSpace=wrap;rounded=0;" vertex="1" parent="1">
          <mxGeometry x="270" y="210" width="60" height="30" as="geometry" />
        </mxCell>
        <mxCell id="xvhHyQVjLZGwruTfH_Rg-19" value="Falso" style="text;html=1;align=center;verticalAlign=middle;whiteSpace=wrap;rounded=0;" vertex="1" parent="1">
          <mxGeometry x="510" y="210" width="60" height="30" as="geometry" />
        </mxCell>
        <mxCell id="xvhHyQVjLZGwruTfH_Rg-20" value="Verdadero" style="text;html=1;align=center;verticalAlign=middle;whiteSpace=wrap;rounded=0;" vertex="1" parent="1">
          <mxGeometry x="420" y="320" width="60" height="30" as="geometry" />
        </mxCell>
        <mxCell id="xvhHyQVjLZGwruTfH_Rg-21" style="edgeStyle=orthogonalEdgeStyle;rounded=0;orthogonalLoop=1;jettySize=auto;html=1;exitX=0;exitY=0.5;exitDx=0;exitDy=0;entryX=0.5;entryY=0;entryDx=0;entryDy=0;" edge="1" parent="1" source="xvhHyQVjLZGwruTfH_Rg-22">
          <mxGeometry relative="1" as="geometry">
            <mxPoint x="632" y="500" as="targetPoint" />
            <Array as="points">
              <mxPoint x="672" y="460" />
              <mxPoint x="672" y="461" />
              <mxPoint x="632" y="461" />
            </Array>
          </mxGeometry>
        </mxCell>
        <mxCell id="xvhHyQVjLZGwruTfH_Rg-44" style="edgeStyle=orthogonalEdgeStyle;rounded=0;orthogonalLoop=1;jettySize=auto;html=1;entryX=0.5;entryY=0;entryDx=0;entryDy=0;" edge="1" parent="1" source="xvhHyQVjLZGwruTfH_Rg-22" target="xvhHyQVjLZGwruTfH_Rg-26">
          <mxGeometry relative="1" as="geometry">
            <mxPoint x="1000" y="455" as="targetPoint" />
          </mxGeometry>
        </mxCell>
        <mxCell id="xvhHyQVjLZGwruTfH_Rg-22" value="Calificacion &amp;lt; 80 || Calificacion &amp;gt;= 70" style="rhombus;whiteSpace=wrap;html=1;" vertex="1" parent="1">
          <mxGeometry x="710" y="400" width="160" height="110" as="geometry" />
        </mxCell>
        <mxCell id="xvhHyQVjLZGwruTfH_Rg-57" style="edgeStyle=orthogonalEdgeStyle;rounded=0;orthogonalLoop=1;jettySize=auto;html=1;exitX=0;exitY=0.5;exitDx=0;exitDy=0;entryX=1;entryY=1;entryDx=0;entryDy=0;" edge="1" parent="1" source="xvhHyQVjLZGwruTfH_Rg-23" target="xvhHyQVjLZGwruTfH_Rg-49">
          <mxGeometry relative="1" as="geometry" />
        </mxCell>
        <mxCell id="xvhHyQVjLZGwruTfH_Rg-23" value="Letra =&amp;nbsp;D" style="shape=document;whiteSpace=wrap;html=1;boundedLbl=1;" vertex="1" parent="1">
          <mxGeometry x="580" y="500" width="100" height="50" as="geometry" />
        </mxCell>
        <mxCell id="xvhHyQVjLZGwruTfH_Rg-24" value="Verdadero" style="text;html=1;align=center;verticalAlign=middle;whiteSpace=wrap;rounded=0;" vertex="1" parent="1">
          <mxGeometry x="638" y="420" width="60" height="30" as="geometry" />
        </mxCell>
        <mxCell id="xvhHyQVjLZGwruTfH_Rg-25" style="edgeStyle=orthogonalEdgeStyle;rounded=0;orthogonalLoop=1;jettySize=auto;html=1;exitX=0;exitY=0.5;exitDx=0;exitDy=0;entryX=0.5;entryY=0;entryDx=0;entryDy=0;" edge="1" parent="1" source="xvhHyQVjLZGwruTfH_Rg-26">
          <mxGeometry relative="1" as="geometry">
            <mxPoint x="842" y="640" as="targetPoint" />
            <Array as="points">
              <mxPoint x="882" y="600" />
              <mxPoint x="882" y="601" />
              <mxPoint x="842" y="601" />
            </Array>
          </mxGeometry>
        </mxCell>
        <mxCell id="xvhHyQVjLZGwruTfH_Rg-46" style="edgeStyle=orthogonalEdgeStyle;rounded=0;orthogonalLoop=1;jettySize=auto;html=1;exitX=1;exitY=0.5;exitDx=0;exitDy=0;entryX=0.5;entryY=0;entryDx=0;entryDy=0;" edge="1" parent="1" source="xvhHyQVjLZGwruTfH_Rg-26" target="xvhHyQVjLZGwruTfH_Rg-30">
          <mxGeometry relative="1" as="geometry" />
        </mxCell>
        <mxCell id="xvhHyQVjLZGwruTfH_Rg-26" value="Calificacion &amp;lt; 85 || Calificacion &amp;gt;= 80" style="rhombus;whiteSpace=wrap;html=1;" vertex="1" parent="1">
          <mxGeometry x="920" y="540" width="156" height="110" as="geometry" />
        </mxCell>
        <mxCell id="xvhHyQVjLZGwruTfH_Rg-61" style="edgeStyle=orthogonalEdgeStyle;rounded=0;orthogonalLoop=1;jettySize=auto;html=1;entryX=0.5;entryY=1;entryDx=0;entryDy=0;" edge="1" parent="1" source="xvhHyQVjLZGwruTfH_Rg-27" target="xvhHyQVjLZGwruTfH_Rg-49">
          <mxGeometry relative="1" as="geometry" />
        </mxCell>
        <mxCell id="xvhHyQVjLZGwruTfH_Rg-27" value="Letra =&amp;nbsp;C" style="shape=document;whiteSpace=wrap;html=1;boundedLbl=1;" vertex="1" parent="1">
          <mxGeometry x="790" y="640" width="100" height="50" as="geometry" />
        </mxCell>
        <mxCell id="xvhHyQVjLZGwruTfH_Rg-28" value="Verdadero" style="text;html=1;align=center;verticalAlign=middle;whiteSpace=wrap;rounded=0;" vertex="1" parent="1">
          <mxGeometry x="848" y="560" width="60" height="30" as="geometry" />
        </mxCell>
        <mxCell id="xvhHyQVjLZGwruTfH_Rg-29" style="edgeStyle=orthogonalEdgeStyle;rounded=0;orthogonalLoop=1;jettySize=auto;html=1;exitX=0;exitY=0.5;exitDx=0;exitDy=0;entryX=0.5;entryY=0;entryDx=0;entryDy=0;" edge="1" parent="1" source="xvhHyQVjLZGwruTfH_Rg-30">
          <mxGeometry relative="1" as="geometry">
            <mxPoint x="1022" y="770" as="targetPoint" />
            <Array as="points">
              <mxPoint x="1062" y="730" />
              <mxPoint x="1062" y="731" />
              <mxPoint x="1022" y="731" />
            </Array>
          </mxGeometry>
        </mxCell>
        <mxCell id="xvhHyQVjLZGwruTfH_Rg-47" style="edgeStyle=orthogonalEdgeStyle;rounded=0;orthogonalLoop=1;jettySize=auto;html=1;exitX=1;exitY=0.5;exitDx=0;exitDy=0;" edge="1" parent="1" source="xvhHyQVjLZGwruTfH_Rg-30" target="xvhHyQVjLZGwruTfH_Rg-34">
          <mxGeometry relative="1" as="geometry" />
        </mxCell>
        <mxCell id="xvhHyQVjLZGwruTfH_Rg-30" value="Calificacion &amp;lt; 90 || Calificacion &amp;gt;= 85" style="rhombus;whiteSpace=wrap;html=1;" vertex="1" parent="1">
          <mxGeometry x="1100" y="670" width="156" height="110" as="geometry" />
        </mxCell>
        <mxCell id="xvhHyQVjLZGwruTfH_Rg-62" style="edgeStyle=orthogonalEdgeStyle;rounded=0;orthogonalLoop=1;jettySize=auto;html=1;entryX=0.5;entryY=1;entryDx=0;entryDy=0;" edge="1" parent="1" source="xvhHyQVjLZGwruTfH_Rg-31" target="xvhHyQVjLZGwruTfH_Rg-49">
          <mxGeometry relative="1" as="geometry" />
        </mxCell>
        <mxCell id="xvhHyQVjLZGwruTfH_Rg-31" value="Letra =&amp;nbsp;B" style="shape=document;whiteSpace=wrap;html=1;boundedLbl=1;" vertex="1" parent="1">
          <mxGeometry x="970" y="770" width="100" height="50" as="geometry" />
        </mxCell>
        <mxCell id="xvhHyQVjLZGwruTfH_Rg-32" value="Verdadero" style="text;html=1;align=center;verticalAlign=middle;whiteSpace=wrap;rounded=0;" vertex="1" parent="1">
          <mxGeometry x="1028" y="690" width="60" height="30" as="geometry" />
        </mxCell>
        <mxCell id="xvhHyQVjLZGwruTfH_Rg-33" style="edgeStyle=orthogonalEdgeStyle;rounded=0;orthogonalLoop=1;jettySize=auto;html=1;exitX=0;exitY=0.5;exitDx=0;exitDy=0;entryX=0.5;entryY=0;entryDx=0;entryDy=0;" edge="1" parent="1" source="xvhHyQVjLZGwruTfH_Rg-34">
          <mxGeometry relative="1" as="geometry">
            <mxPoint x="1182" y="940" as="targetPoint" />
            <Array as="points">
              <mxPoint x="1222" y="900" />
              <mxPoint x="1222" y="901" />
              <mxPoint x="1182" y="901" />
            </Array>
          </mxGeometry>
        </mxCell>
        <mxCell id="xvhHyQVjLZGwruTfH_Rg-34" value="&amp;nbsp;Calificacion &amp;gt;= 90" style="rhombus;whiteSpace=wrap;html=1;" vertex="1" parent="1">
          <mxGeometry x="1260" y="840" width="156" height="110" as="geometry" />
        </mxCell>
        <mxCell id="xvhHyQVjLZGwruTfH_Rg-85" style="edgeStyle=orthogonalEdgeStyle;rounded=0;orthogonalLoop=1;jettySize=auto;html=1;entryX=0;entryY=1;entryDx=0;entryDy=0;" edge="1" parent="1" source="xvhHyQVjLZGwruTfH_Rg-35" target="xvhHyQVjLZGwruTfH_Rg-49">
          <mxGeometry relative="1" as="geometry" />
        </mxCell>
        <mxCell id="xvhHyQVjLZGwruTfH_Rg-35" value="Letra =&amp;nbsp;A" style="shape=document;whiteSpace=wrap;html=1;boundedLbl=1;" vertex="1" parent="1">
          <mxGeometry x="1130" y="940" width="100" height="50" as="geometry" />
        </mxCell>
        <mxCell id="xvhHyQVjLZGwruTfH_Rg-36" value="Verdadero" style="text;html=1;align=center;verticalAlign=middle;whiteSpace=wrap;rounded=0;" vertex="1" parent="1">
          <mxGeometry x="1188" y="860" width="60" height="30" as="geometry" />
        </mxCell>
        <mxCell id="xvhHyQVjLZGwruTfH_Rg-37" value="Falso" style="text;html=1;align=center;verticalAlign=middle;whiteSpace=wrap;rounded=0;" vertex="1" parent="1">
          <mxGeometry x="890" y="420" width="60" height="30" as="geometry" />
        </mxCell>
        <mxCell id="xvhHyQVjLZGwruTfH_Rg-38" value="Falso" style="text;html=1;align=center;verticalAlign=middle;whiteSpace=wrap;rounded=0;" vertex="1" parent="1">
          <mxGeometry x="1110" y="560" width="60" height="30" as="geometry" />
        </mxCell>
        <mxCell id="xvhHyQVjLZGwruTfH_Rg-39" value="Falso" style="text;html=1;align=center;verticalAlign=middle;whiteSpace=wrap;rounded=0;" vertex="1" parent="1">
          <mxGeometry x="1290" y="690" width="60" height="30" as="geometry" />
        </mxCell>
        <mxCell id="xvhHyQVjLZGwruTfH_Rg-40" value="Falso" style="text;html=1;align=center;verticalAlign=middle;whiteSpace=wrap;rounded=0;" vertex="1" parent="1">
          <mxGeometry x="1430" y="850" width="60" height="30" as="geometry" />
        </mxCell>
        <mxCell id="xvhHyQVjLZGwruTfH_Rg-50" style="edgeStyle=orthogonalEdgeStyle;rounded=0;orthogonalLoop=1;jettySize=auto;html=1;exitX=0;exitY=0.5;exitDx=0;exitDy=0;entryX=0.5;entryY=0;entryDx=0;entryDy=0;" edge="1" parent="1" source="xvhHyQVjLZGwruTfH_Rg-49" target="xvhHyQVjLZGwruTfH_Rg-68">
          <mxGeometry relative="1" as="geometry">
            <mxPoint x="-840" y="410" as="targetPoint" />
          </mxGeometry>
        </mxCell>
        <mxCell id="xvhHyQVjLZGwruTfH_Rg-49" value="Letra" style="rhombus;whiteSpace=wrap;html=1;" vertex="1" parent="1">
          <mxGeometry x="-20" y="370" width="152" height="80" as="geometry" />
        </mxCell>
        <mxCell id="xvhHyQVjLZGwruTfH_Rg-51" value="Raspado pero logrado" style="shape=document;whiteSpace=wrap;html=1;boundedLbl=1;" vertex="1" parent="1">
          <mxGeometry x="-750" y="460" width="100" height="60" as="geometry" />
        </mxCell>
        <mxCell id="xvhHyQVjLZGwruTfH_Rg-60" style="edgeStyle=orthogonalEdgeStyle;rounded=0;orthogonalLoop=1;jettySize=auto;html=1;entryX=0.5;entryY=0;entryDx=0;entryDy=0;" edge="1" parent="1" source="xvhHyQVjLZGwruTfH_Rg-58" target="xvhHyQVjLZGwruTfH_Rg-5">
          <mxGeometry relative="1" as="geometry" />
        </mxCell>
        <mxCell id="xvhHyQVjLZGwruTfH_Rg-58" value="Letra" style="shape=parallelogram;perimeter=parallelogramPerimeter;whiteSpace=wrap;html=1;fixedSize=1;" vertex="1" parent="1">
          <mxGeometry x="357" y="-90" width="118" height="40" as="geometry" />
        </mxCell>
        <mxCell id="xvhHyQVjLZGwruTfH_Rg-64" value="Bien hecho!" style="shape=document;whiteSpace=wrap;html=1;boundedLbl=1;" vertex="1" parent="1">
          <mxGeometry x="-620" y="460" width="100" height="60" as="geometry" />
        </mxCell>
        <mxCell id="xvhHyQVjLZGwruTfH_Rg-65" value="Muy bien hecho!" style="shape=document;whiteSpace=wrap;html=1;boundedLbl=1;" vertex="1" parent="1">
          <mxGeometry x="-490" y="460" width="100" height="50" as="geometry" />
        </mxCell>
        <mxCell id="xvhHyQVjLZGwruTfH_Rg-66" value="Excelente!!" style="shape=document;whiteSpace=wrap;html=1;boundedLbl=1;" vertex="1" parent="1">
          <mxGeometry x="-370" y="460" width="100" height="50" as="geometry" />
        </mxCell>
        <mxCell id="xvhHyQVjLZGwruTfH_Rg-67" value="Sos el goat!!" style="shape=document;whiteSpace=wrap;html=1;boundedLbl=1;" vertex="1" parent="1">
          <mxGeometry x="-230" y="460" width="100" height="50" as="geometry" />
        </mxCell>
        <mxCell id="xvhHyQVjLZGwruTfH_Rg-68" value="Retira la materia" style="shape=document;whiteSpace=wrap;html=1;boundedLbl=1;" vertex="1" parent="1">
          <mxGeometry x="-870" y="460" width="100" height="60" as="geometry" />
        </mxCell>
        <mxCell id="xvhHyQVjLZGwruTfH_Rg-70" value="" style="endArrow=classic;html=1;rounded=0;entryX=0.5;entryY=0;entryDx=0;entryDy=0;" edge="1" parent="1" target="xvhHyQVjLZGwruTfH_Rg-51">
          <mxGeometry width="50" height="50" relative="1" as="geometry">
            <mxPoint x="-700" y="410" as="sourcePoint" />
            <mxPoint x="-700" y="450" as="targetPoint" />
          </mxGeometry>
        </mxCell>
        <mxCell id="xvhHyQVjLZGwruTfH_Rg-72" value="" style="endArrow=classic;html=1;rounded=0;entryX=0.5;entryY=0;entryDx=0;entryDy=0;" edge="1" parent="1">
          <mxGeometry width="50" height="50" relative="1" as="geometry">
            <mxPoint x="-570.67" y="410" as="sourcePoint" />
            <mxPoint x="-570.67" y="460" as="targetPoint" />
          </mxGeometry>
        </mxCell>
        <mxCell id="xvhHyQVjLZGwruTfH_Rg-73" value="" style="endArrow=classic;html=1;rounded=0;entryX=0.5;entryY=0;entryDx=0;entryDy=0;" edge="1" parent="1">
          <mxGeometry width="50" height="50" relative="1" as="geometry">
            <mxPoint x="-440.66999999999996" y="410" as="sourcePoint" />
            <mxPoint x="-440.66999999999996" y="460" as="targetPoint" />
          </mxGeometry>
        </mxCell>
        <mxCell id="xvhHyQVjLZGwruTfH_Rg-74" value="" style="endArrow=classic;html=1;rounded=0;entryX=0.5;entryY=0;entryDx=0;entryDy=0;" edge="1" parent="1">
          <mxGeometry width="50" height="50" relative="1" as="geometry">
            <mxPoint x="-320.67" y="410" as="sourcePoint" />
            <mxPoint x="-320.67" y="460" as="targetPoint" />
          </mxGeometry>
        </mxCell>
        <mxCell id="xvhHyQVjLZGwruTfH_Rg-75" value="" style="endArrow=classic;html=1;rounded=0;entryX=0.5;entryY=0;entryDx=0;entryDy=0;" edge="1" parent="1">
          <mxGeometry width="50" height="50" relative="1" as="geometry">
            <mxPoint x="-180.67000000000002" y="410" as="sourcePoint" />
            <mxPoint x="-180.67000000000002" y="460" as="targetPoint" />
          </mxGeometry>
        </mxCell>
        <mxCell id="xvhHyQVjLZGwruTfH_Rg-76" value="Case A" style="text;html=1;align=center;verticalAlign=middle;whiteSpace=wrap;rounded=0;" vertex="1" parent="1">
          <mxGeometry x="-170" y="430" width="60" height="30" as="geometry" />
        </mxCell>
        <mxCell id="xvhHyQVjLZGwruTfH_Rg-77" value="Case B" style="text;html=1;align=center;verticalAlign=middle;whiteSpace=wrap;rounded=0;" vertex="1" parent="1">
          <mxGeometry x="-300" y="430" width="60" height="30" as="geometry" />
        </mxCell>
        <mxCell id="xvhHyQVjLZGwruTfH_Rg-78" value="Case C" style="text;html=1;align=center;verticalAlign=middle;whiteSpace=wrap;rounded=0;" vertex="1" parent="1">
          <mxGeometry x="-430" y="430" width="60" height="30" as="geometry" />
        </mxCell>
        <mxCell id="xvhHyQVjLZGwruTfH_Rg-79" value="Case D" style="text;html=1;align=center;verticalAlign=middle;whiteSpace=wrap;rounded=0;" vertex="1" parent="1">
          <mxGeometry x="-560" y="430" width="60" height="30" as="geometry" />
        </mxCell>
        <mxCell id="xvhHyQVjLZGwruTfH_Rg-80" value="Case E" style="text;html=1;align=center;verticalAlign=middle;whiteSpace=wrap;rounded=0;" vertex="1" parent="1">
          <mxGeometry x="-690" y="430" width="60" height="30" as="geometry" />
        </mxCell>
        <mxCell id="xvhHyQVjLZGwruTfH_Rg-81" value="Case F" style="text;html=1;align=center;verticalAlign=middle;whiteSpace=wrap;rounded=0;" vertex="1" parent="1">
          <mxGeometry x="-810" y="430" width="60" height="30" as="geometry" />
        </mxCell>
        <mxCell id="xvhHyQVjLZGwruTfH_Rg-84" style="edgeStyle=orthogonalEdgeStyle;rounded=0;orthogonalLoop=1;jettySize=auto;html=1;entryX=1;entryY=0.5;entryDx=0;entryDy=0;" edge="1" parent="1" source="xvhHyQVjLZGwruTfH_Rg-82" target="xvhHyQVjLZGwruTfH_Rg-34">
          <mxGeometry relative="1" as="geometry" />
        </mxCell>
        <mxCell id="xvhHyQVjLZGwruTfH_Rg-82" value="Fin" style="ellipse;whiteSpace=wrap;html=1;" vertex="1" parent="1">
          <mxGeometry x="340" y="1390" width="96" height="50" as="geometry" />
        </mxCell>
        <mxCell id="xvhHyQVjLZGwruTfH_Rg-89" value="" style="endArrow=classic;html=1;rounded=0;entryX=0;entryY=0.5;entryDx=0;entryDy=0;" edge="1" parent="1" target="xvhHyQVjLZGwruTfH_Rg-82">
          <mxGeometry width="50" height="50" relative="1" as="geometry">
            <mxPoint x="-827" y="510" as="sourcePoint" />
            <mxPoint x="-830" y="1380" as="targetPoint" />
            <Array as="points">
              <mxPoint x="-827" y="1420" />
            </Array>
          </mxGeometry>
        </mxCell>
        <mxCell id="xvhHyQVjLZGwruTfH_Rg-91" value="" style="endArrow=classic;html=1;rounded=0;entryX=0;entryY=0.5;entryDx=0;entryDy=0;" edge="1" parent="1" target="xvhHyQVjLZGwruTfH_Rg-82">
          <mxGeometry width="50" height="50" relative="1" as="geometry">
            <mxPoint x="-705" y="510" as="sourcePoint" />
            <mxPoint x="462" y="1415" as="targetPoint" />
            <Array as="points">
              <mxPoint x="-705" y="1420" />
            </Array>
          </mxGeometry>
        </mxCell>
        <mxCell id="xvhHyQVjLZGwruTfH_Rg-92" value="" style="endArrow=classic;html=1;rounded=0;entryX=0;entryY=0.5;entryDx=0;entryDy=0;exitX=0.468;exitY=0.81;exitDx=0;exitDy=0;exitPerimeter=0;" edge="1" parent="1" source="xvhHyQVjLZGwruTfH_Rg-64">
          <mxGeometry width="50" height="50" relative="1" as="geometry">
            <mxPoint x="-700.5" y="510" as="sourcePoint" />
            <mxPoint x="344.5" y="1415" as="targetPoint" />
            <Array as="points">
              <mxPoint x="-580" y="1420" />
            </Array>
          </mxGeometry>
        </mxCell>
        <mxCell id="xvhHyQVjLZGwruTfH_Rg-93" value="" style="endArrow=classic;html=1;rounded=0;exitX=0.468;exitY=0.81;exitDx=0;exitDy=0;exitPerimeter=0;" edge="1" parent="1">
          <mxGeometry width="50" height="50" relative="1" as="geometry">
            <mxPoint x="-443.5" y="510" as="sourcePoint" />
            <mxPoint x="340" y="1416" as="targetPoint" />
            <Array as="points">
              <mxPoint x="-450.5" y="1421" />
            </Array>
          </mxGeometry>
        </mxCell>
        <mxCell id="xvhHyQVjLZGwruTfH_Rg-94" value="" style="endArrow=classic;html=1;rounded=0;exitX=0.468;exitY=0.81;exitDx=0;exitDy=0;exitPerimeter=0;entryX=0;entryY=0.5;entryDx=0;entryDy=0;" edge="1" parent="1" target="xvhHyQVjLZGwruTfH_Rg-82">
          <mxGeometry width="50" height="50" relative="1" as="geometry">
            <mxPoint x="-321.5" y="509.5" as="sourcePoint" />
            <mxPoint x="340" y="1421" as="targetPoint" />
            <Array as="points">
              <mxPoint x="-328.5" y="1420.5" />
            </Array>
          </mxGeometry>
        </mxCell>
        <mxCell id="xvhHyQVjLZGwruTfH_Rg-95" value="" style="endArrow=classic;html=1;rounded=0;exitX=0.468;exitY=0.81;exitDx=0;exitDy=0;exitPerimeter=0;entryX=0;entryY=0.5;entryDx=0;entryDy=0;" edge="1" parent="1" target="xvhHyQVjLZGwruTfH_Rg-82">
          <mxGeometry width="50" height="50" relative="1" as="geometry">
            <mxPoint x="-163" y="500" as="sourcePoint" />
            <mxPoint x="330" y="1420" as="targetPoint" />
            <Array as="points">
              <mxPoint x="-170" y="1420" />
              <mxPoint x="230" y="1420" />
            </Array>
          </mxGeometry>
        </mxCell>
      </root>
    </mxGraphModel>
  </diagram>
</mxfile>
